<svg xmlns="http://www.w3.org/2000/svg">
    <symbol id="OLLAMAX" viewBox="0 0 1265.000000 778.000000" stroke="none" fill="currentColor">
        <g transform="translate(0.000000,778.000000) scale(0.100000,-0.100000)">
            <path d="M5115 7746 c-132 -45 -212 -118 -286 -261 -119 -230 -157 -478 -144 -940 l7 -240 -47 -45 c-77 -74 -209 -239 -259 -325 -59 -101 -119 -255 -142 -365 -23 -105 -26 -364 -5 -455 24 -111 63 -219 120 -340 l57 -121 -29 -64 c-88 -196 -128 -394 -128 -640 -1 -275 30 -422 131 -623 l59 -119 -40 -96 c-68 -164 -88 -250 -101 -428 -8 -115 -8 -196 -1 -287 15 -186 26 -197 198 -197 85 0 107 3 126 19 l23 18 -17 99 c-27 162 -29 204 -17 312 15 142 41 233 108 381 52 115 57 132 57 197 0 68 -2 74 -47 141 -101 153 -143 276 -159 473 -21 258 20 450 149 705 39 78 55 140 47 181 -3 20 -27 58 -59 95 -53 61 -109 161 -141 254 -36 106 -30 398 12 545 58 203 252 427 449 517 93 42 152 54 323 62 188 9 174 3 240 120 93 165 285 325 466 386 127 43 431 37 551 -11 174 -69 334 -203 423 -352 81 -137 73 -132 248 -143 200 -11 215 -14 319 -64 199 -96 354 -255 430 -443 69 -172 91 -407 53 -571 -16 -69 -112 -259 -158 -314 -22 -26 -43 -57 -46 -68 -12 -37 5 -105 46 -190 60 -123 105 -236 123 -306 44 -170 40 -448 -9 -616 -29 -101 -58 -161 -123 -260 -45 -67 -47 -73 -47 -141 0 -64 6 -82 49 -176 27 -58 57 -128 67 -157 54 -157 67 -359 34 -547 l-18 -109 22 -19 c19 -15 41 -18 120 -18 121 0 164 11 181 48 24 51 34 252 22 426 -12 182 -30 259 -97 425 l-45 113 50 91 c103 193 144 372 144 632 -1 243 -34 415 -125 636 l-40 98 52 103 c100 200 133 336 132 558 0 172 -22 292 -81 445 -66 172 -144 289 -307 464 l-60 64 0 321 c-1 336 -10 456 -47 606 -92 381 -321 590 -557 511 -200 -68 -311 -251 -412 -679 -19 -81 -36 -135 -45 -139 -8 -3 -53 11 -101 30 -215 86 -329 111 -508 112 -166 0 -250 -18 -443 -97 -68 -28 -124 -49 -126 -47 -2 2 -21 76 -41 164 -64 276 -134 439 -233 546 -97 105 -239 152 -347 115z m114 -333 c70 -85 132 -267 171 -507 26 -155 25 -325 -1 -351 -9 -9 -54 -22 -105 -31 -102 -16 -229 -41 -260 -50 -30 -8 -34 14 -41 186 -9 232 34 495 106 654 32 72 75 136 91 136 5 0 22 -17 39 -37z m2275 2 c95 -124 166 -427 166 -705 0 -86 -14 -227 -24 -237 -1 -1 -26 4 -56 12 -30 8 -104 21 -165 30 -131 19 -164 30 -176 62 -31 81 21 477 84 644 45 118 108 229 131 229 7 0 26 -16 40 -35z"/>
            <path d="M6210 5423 c-125 -13 -295 -71 -399 -136 -67 -43 -192 -166 -238 -236 -68 -103 -86 -168 -87 -316 -1 -109 3 -142 22 -202 58 -185 276 -363 502 -410 106 -22 485 -25 595 -5 95 17 209 56 271 91 120 69 238 209 281 334 23 65 25 82 20 197 -5 142 -24 209 -84 300 -76 115 -212 235 -340 299 -137 68 -360 103 -543 84z m365 -246 c157 -51 294 -161 357 -286 30 -61 33 -73 33 -161 0 -83 -4 -103 -27 -153 -50 -107 -177 -205 -314 -243 -91 -25 -402 -31 -524 -10 -171 29 -312 123 -376 249 -33 64 -43 173 -23 244 46 166 219 319 423 374 59 16 96 18 221 15 128 -3 162 -7 230 -29z"/>
            <path d="M6171 4915 c-16 -14 -33 -34 -36 -44 -9 -29 12 -72 58 -119 41 -42 42 -44 39 -107 -2 -54 1 -67 21 -90 18 -22 31 -27 71 -27 66 0 78 15 87 108 7 70 11 80 43 113 41 43 59 86 51 121 -15 59 -57 73 -149 48 -37 -10 -51 -9 -88 5 -57 22 -61 22 -97 -8z"/>
            <path d="M5195 5379 c-115 -27 -187 -217 -124 -329 42 -74 173 -114 248 -75 15 7 51 39 78 69 84 92 91 170 23 263 -52 71 -126 95 -225 72z"/>
            <path d="M7324 5376 c-17 -8 -47 -31 -67 -52 -86 -91 -84 -182 6 -280 59 -65 92 -84 144 -84 83 0 157 39 188 101 36 68 5 217 -57 276 -52 50 -149 67 -214 39z"/>
            <path d="M900 2259 c-202 -26 -424 -140 -566 -290 -178 -189 -269 -434 -281 -755 -13 -323 56 -586 207 -789 69 -93 112 -137 190 -194 123 -92 228 -139 391 -178 101 -23 352 -24 462 0 399 88 674 376 763 802 26 126 27 472 0 593 -123 570 -578 887 -1166 811z m321 -415 c144 -43 246 -129 315 -268 62 -125 84 -237 84 -426 0 -184 -22 -296 -81 -418 -99 -204 -279 -306 -514 -289 -147 10 -273 74 -357 181 -53 66 -82 127 -114 233 -25 82 -27 102 -28 283 -1 226 10 291 76 430 66 137 182 237 319 274 75 20 232 20 300 0z"/>
            <path d="M2500 1150 l0 -1090 225 0 225 0 0 1090 0 1090 -225 0 -225 0 0 -1090z"/>
            <path d="M3397 2233 c-4 -3 -7 -494 -7 -1090 l0 -1083 225 0 225 0 0 1090 0 1090 -218 0 c-120 0 -222 -3 -225 -7z"/>
            <path d="M4855 1709 c-200 -19 -381 -108 -478 -234 -45 -59 -96 -162 -104 -209 l-5 -33 138 -12 c77 -6 169 -14 206 -17 l67 -6 16 34 c42 82 113 131 218
            148 172 27 295 -52 298 -193 1 -44 -3 -63 -17 -78 -40 -45 -77 -53 -369 -89 -179 -22 -281 -47 -372 -92 -166 -82 -243 -210 -243 -407 0 -151 33 -242 118 -333 55 -59 108 -91 205 -126 63 -22 89 -25 212 -26 146 -1 194 9 290 57 47 24 151 121 172 161 23 44 32 20 35 -89 l3 -100 213 -3 213 -2 -4 612 c-2 533 -5 619 -19 659 -30 86 -61 134 -127 199 -105 104 -241 160 -440 181 -95 10 -111 10 -226 -2z m359 -1025 c0 -112 -2 -123 -29 -172 -48 -89 -120 -139 -230 -162 -154 -32 -297 36 -312 149 -13 94 31 166 125 208 29 13 120 35 203 49 83 14 167 32 187 39 21 7 42 12 47 11 6 -2 10 -51 9 -122z"/>
            <path d="M6920 1711 c-83 -14 -128 -31 -189 -72 -73 -49 -123 -105 -157 -176 -13 -29 -29 -53 -34 -53 -5 0 -11 62 -12 143 l-3 142 -210 0 -210 0 -3 -817 -2 -818 225 0 225 0 0 508 c0 563 2 586 63 671 89 123 281 138 384 30 70 -74 68 -54 71 -662 l3 -547 217 2 217 3 5 545 c6 604 4 586 73 659 95 99 301 94 379 -10 55 -74 53 -45 58 -639 l5 -555 223 0 223 0 -1 609 c0 517 -3 619 -16 670 -46 178 -164 301 -338 353 -65 20 -233 22 -306 4 -130 -32 -261 -130 -317 -237 -15 -30 -31 -54 -34 -54 -3 0 -22 33 -43 74 -52 107 -135 176 -254 211 -57 18 -183 26 -242 16z"/>
            <path d="M9485 1709 c-181 -17 -330 -82 -439 -193 -75 -75 -134 -176 -143 -246 l-5 -37 138 -12 c77 -6 169 -14 206 -17 l66 -6 18 38 c39 81 112 130 219 145 104 15 192 -9 247 -68 35 -37 48 -73 48 -134 0 -100 -43 -118 -375 -158 -93 -11 -199 -28 -235 -37 -287 -72 -423 -261 -390 -539 12 -97 24 -133 69 -201 58 -90 138 -147 264 -186 104 -33 302 -33 400 0 110 36 208 109 258 190 12 17 25 30 30 26 5 -3 9 -52 9 -110 l0 -104 213 2 212 3 3 550 c2 382 0 575 -8 632 -25 173 -121 303 -282 382 -100 49 -172 68 -298 81 -105 10 -111 10 -225 -1z m355 -1019 c0 -101 -3 -127 -21 -164 -51 -110 -180 -186 -314 -186 -97 0 -197 53 -225 120 -19 45 -9 140 18 178 39 54 128 89 301 118 85 14 171 32 190 39 20 8 39 14 44 14 4 1 7 -53 7 -119z"/>
            <path d="M10678 2188 c16 -29 113 -190 217 -358 103 -168 239 -389 302 -492 l114 -187 -104 -168 c-58 -93 -209 -334 -336 -537 -127 -202 -231 -372 -231 -377 0 -5 114 -9 259 -9 l260 0 221 370 c122 204 227 370 234 370 6 0 110 -165 232 -367 l220 -368 263 -3 c248 -2 263 -1 257 15 -6 15 -317 517 -578 932 -43 69 -78 132 -78 142 0 9 35 75 79 146 241 394 549 901 560 921 l12 22 -258 0 -258 0 -220 -367 c-121 -202 -225 -368 -230 -370 -10 -3 -54 68 -295 477 -50 85 -106 179 -123 208 l-31 52 -259 0 -259 0 30 -52z"/>
        </g>
    </symbol>

    <symbol id="OLLAMA" viewBox="0 0 181.000000 256.000000" preserveAspectRatio="xMidYMid meet" stroke="none" fill="currentColor">
        <g transform="translate(0.000000,256.000000) scale(0.100000,-0.100000)">
            <path d="M377 2365 c-52 -18 -83 -49 -117 -116 -45 -89 -62 -192 -58 -355 l3 -142 -58 -61 c-148 -155 -185 -387 -92 -574 l34 -69 -20 -44 c-34 -82 -50 -164 -50 -263 0 -108 18 -190 58 -262 l26 -48 -21 -49 c-12 -27 -26 -71 -32 -98 -14 -62 -15 -221 -1 -257 10 -26 14 -27 76 -27 73 0 70 -4 53 86 -15 82 2 188 42 266 37 70 38 104 5 148 -47 64 -68 136 -69 240 -1 103 14 160 66 261 31 61 29 87 -10 122 -11 10 -31 42 -43 70 -19 42 -24 69 -23 142 0 114 25 183 95 260 70 76 142 110 239 112 41 0 78 2 82 2 4 1 17 22 29 47 30 59 96 119 167 152 49 23 70 27 147 27 79 0 97 -4 149 -29 68 -33 133 -94 159 -148 10 -20 23 -41 30 -45 6 -4 46 -8 87 -8 67 -1 83 -5 140 -36 123 -68 193 -187 193 -334 1 -67 -4 -90 -27 -142 -16 -35 -35 -68 -43 -75 -34 -28 -35 -58 -5 -117 52 -101 67 -158 66 -261 -1 -104 -22 -176 -69 -240 -33 -44 -32 -78 5 -148 40 -78 57 -184 42 -266 -17 -90 -20 -86 53 -86 62 0 66 1 76 27 14 36 13 195 -1 257 -6 27 -20 71 -32 98 l-21 49 26 48 c76 139 79 359 6 528 l-20 47 25 46 c99 183 64 439 -81 591 l-58 61 3 142 c4 164 -13 266 -58 357 -64 126 -172 159 -263 79 -54 -47 -92 -138 -123 -298 -3 -14 -10 -22 -17 -18 -182 80 -297 85 -443 21 l-54 -24 -4 22 c-36 185 -85 285 -156 322 -43 21 -74 24 -113 10z m77 -168 c42 -71 81 -301 57 -336 -5 -8 -31 -16 -58 -18 -26 -2 -62 -8 -80 -13 l-31 -8 -7 49 c-8 59 2 172 22 248 14 57 48 121 63 121 5 0 20 -19 34 -43z m965 10 c40 -65 69 -239 56 -336 l-7 -49 -31 8 c-18 5 -54 11 -80 13 -27 2 -53 10 -58 18 -12 17 -3 141 17 229 15 64 57 150 74 150 4 0 18 -15 29 -33z"/>
            <path d="M778 1361 c-73 -24 -116 -51 -165 -104 -55 -60 -76 -120 -71 -201 5 -76 35 -129 106 -183 62 -47 127 -63 257 -63 172 0 258 36 329 138 42 59 48 155 16 230 -29 68 -111 143 -188 173 -80 31 -207 36 -284 10z m257 -100 c161 -71 194 -232 66 -318 -49 -33 -94 -43 -196 -43 -102 0 -147 10 -196 43 -178 120 -32 356 211 343 39 -2 86 -12 115 -25z"/>
            <path d="M838 1159 c-25 -14 -22 -44 7 -67 20 -16 24 -26 19 -49 -7 -36 15 -58 51 -49 21 5 25 12 25 46 0 29 5 42 20 50 27 15 27 66 0 75 -10 3 -28 1 -40 -5 -14 -7 -26 -8 -39 0 -23 12 -22 12 -43 -1z"/>
            <path d="M397 1348 c-9 -7 -23 -30 -32 -50 -21 -53 -1 -103 47 -116 43 -11 60 -6 92 27 40 41 43 81 11 119 -21 25 -34 32 -64 32 -20 0 -45 -6 -54 -12z"/>
            <path d="M1295 1328 c-32 -38 -29 -78 11 -119 32 -33 49 -38 92 -27 49 13 68 62 46 118 -19 47 -38 60 -87 60 -27 0 -41 -7 -62 -32z"/>
        </g>
    </symbol>

    <symbol id="CHAT" viewBox="0 0 24 24" fill="currentColor">
        <path d="M6.45455 19L2 22.5V4C2 3.44772 2.44772 3 3 3H21C21.5523 3 22 3.44772 22 4V18C22 18.5523 21.5523 19 21 19H6.45455ZM7 10V12H9V10H7ZM11 10V12H13V10H11ZM15 10V12H17V10H15Z"></path>
    </symbol>

    <symbol id="SETTINGS" viewBox="0 0 24 24" fill="currentColor">
        <path d="M3.33946 17.0002C2.90721 16.2515 2.58277 15.4702 2.36133 14.6741C3.3338 14.1779 3.99972 13.1668 3.99972 12.0002C3.99972 10.8345 3.3348 9.824 2.36353 9.32741C2.81025 7.71651 3.65857 6.21627 4.86474 4.99001C5.7807 5.58416 6.98935 5.65534 7.99972 5.072C9.01009 4.48866 9.55277 3.40635 9.4962 2.31604C11.1613 1.8846 12.8847 1.90004 14.5031 2.31862C14.4475 3.40806 14.9901 4.48912 15.9997 5.072C17.0101 5.65532 18.2187 5.58416 19.1346 4.99007C19.7133 5.57986 20.2277 6.25151 20.66 7.00021C21.0922 7.7489 21.4167 8.53025 21.6381 9.32628C20.6656 9.82247 19.9997 10.8336 19.9997 12.0002C19.9997 13.166 20.6646 14.1764 21.6359 14.673C21.1892 16.2839 20.3409 17.7841 19.1347 19.0104C18.2187 18.4163 17.0101 18.3451 15.9997 18.9284C14.9893 19.5117 14.4467 20.5941 14.5032 21.6844C12.8382 22.1158 11.1148 22.1004 9.49633 21.6818C9.55191 20.5923 9.00929 19.5113 7.99972 18.9284C6.98938 18.3451 5.78079 18.4162 4.86484 19.0103C4.28617 18.4205 3.77172 17.7489 3.33946 17.0002ZM8.99972 17.1964C10.0911 17.8265 10.8749 18.8227 11.2503 19.9659C11.7486 20.0133 12.2502 20.014 12.7486 19.9675C13.1238 18.8237 13.9078 17.8268 14.9997 17.1964C16.0916 16.5659 17.347 16.3855 18.5252 16.6324C18.8146 16.224 19.0648 15.7892 19.2729 15.334C18.4706 14.4373 17.9997 13.2604 17.9997 12.0002C17.9997 10.74 18.4706 9.5632 19.2729 8.6665C19.1688 8.4405 19.0538 8.21822 18.9279 8.00021C18.802 7.78219 18.667 7.57148 18.5233 7.36842C17.3457 7.61476 16.0911 7.43414 14.9997 6.80405C13.9083 6.17395 13.1246 5.17768 12.7491 4.03455C12.2509 3.98714 11.7492 3.98646 11.2509 4.03292C10.8756 5.17671 10.0916 6.17364 8.99972 6.80405C7.9078 7.43447 6.65245 7.61494 5.47428 7.36803C5.18485 7.77641 4.93463 8.21117 4.72656 8.66637C5.52881 9.56311 5.99972 10.74 5.99972 12.0002C5.99972 13.2604 5.52883 14.4372 4.72656 15.3339C4.83067 15.5599 4.94564 15.7822 5.07152 16.0002C5.19739 16.2182 5.3324 16.4289 5.47612 16.632C6.65377 16.3857 7.90838 16.5663 8.99972 17.1964ZM11.9997 15.0002C10.3429 15.0002 8.99972 13.6571 8.99972 12.0002C8.99972 10.3434 10.3429 9.00021 11.9997 9.00021C13.6566 9.00021 14.9997 10.3434 14.9997 12.0002C14.9997 13.6571 13.6566 15.0002 11.9997 15.0002ZM11.9997 13.0002C12.552 13.0002 12.9997 12.5525 12.9997 12.0002C12.9997 11.4479 12.552 11.0002 11.9997 11.0002C11.4474 11.0002 10.9997 11.4479 10.9997 12.0002C10.9997 12.5525 11.4474 13.0002 11.9997 13.0002Z"></path>
    </symbol>

    <symbol id="USER" viewBox="0 0 24 24" fill="currentColor">
        <path d="M20 22H4V20C4 17.2386 6.23858 15 9 15H15C17.7614 15 20 17.2386 20 20V22ZM12 13C8.68629 13 6 10.3137 6 7C6 3.68629 8.68629 1 12 1C15.3137 1 18 3.68629 18 7C18 10.3137 15.3137 13 12 13Z"></path>
    </symbol>
    
    <symbol id="LOGOUT" viewBox="0 0 24 24" fill="currentColor">
        <path d="M5 22C4.44772 22 4 21.5523 4 21V3C4 2.44772 4.44772 2 5 2H19C19.5523 2 20 2.44772 20 3V6H18V4H6V20H18V18H20V21C20 21.5523 19.5523 22 19 22H5ZM18 16V13H11V11H18V8L23 12L18 16Z"></path>
    </symbol>
    
    <symbol id="ARROW_DOWN" viewBox="0 0 24 24" fill="currentColor">
        <path d="M12 15.0006L7.75732 10.758L9.17154 9.34375L12 12.1722L14.8284 9.34375L16.2426 10.758L12 15.0006Z"></path>
    </symbol>
    
    <symbol id="ARROW_UP" viewBox="0 0 24 24" fill="currentColor">
        <path d="M12 11.8284L9.17154 14.6569L7.75732 13.2426L12 9L16.2426 13.2426L14.8284 14.6569L12 11.8284Z"></path>
    </symbol>

    <symbol id="DELETE" viewBox="0 0 24 24" fill="currentColor">
        <path d="M17 4H22V6H20V21C20 21.5523 19.5523 22 19 22H5C4.44772 22 4 21.5523 4 21V6H2V4H7V2H17V4ZM9 9V17H11V9H9ZM13 9V17H15V9H13Z"></path>
    </symbol>

    <symbol id="SUCCESS" viewBox="0 0 24 24" fill="currentColor">
        <path d="M12 22C6.47715 22 2 17.5228 2 12C2 6.47715 6.47715 2 12 2C17.5228 2 22 6.47715 22 12C22 17.5228 17.5228 22 12 22ZM11.0026 16L18.0737 8.92893L16.6595 7.51472L11.0026 13.1716L8.17421 10.3431L6.75999 11.7574L11.0026 16Z"></path>
    </symbol>

    <symbol id="ADD" viewBox="0 0 24 24" fill="currentColor">
        <path d="M12 22C6.47715 22 2 17.5228 2 12C2 6.47715 6.47715 2 12 2C17.5228 2 22 6.47715 22 12C22 17.5228 17.5228 22 12 22ZM11 11H7V13H11V17H13V13H17V11H13V7H11V11Z"></path>
    </symbol>

    <symbol id="SEND" viewBox="0 0 24 24" fill="currentColor">
        <path d="M12.9999 7.82843V20H10.9999V7.82843L5.63589 13.1924L4.22168 11.7782L11.9999 4L19.778 11.7782L18.3638 13.1924L12.9999 7.82843Z"></path>
    </symbol>

    <symbol id="MODEL" viewBox="0 0 24 24" fill="currentColor">
        <path d="M21 9.5V12.5C21 14.9853 16.9706 17 12 17C7.02944 17 3 14.9853 3 12.5V9.5C3 11.9853 7.02944 14 12 14C16.9706 14 21 11.9853 21 9.5ZM3 14.5C3 16.9853 7.02944 19 12 19C16.9706 19 21 16.9853 21 14.5V17.5C21 19.9853 16.9706 22 12 22C7.02944 22 3 19.9853 3 17.5V14.5ZM12 12C7.02944 12 3 9.98528 3 7.5C3 5.01472 7.02944 3 12 3C16.9706 3 21 5.01472 21 7.5C21 9.98528 16.9706 12 12 12Z"></path>
    </symbol>





    <symbol id="CLOSE" viewBox="0 0 24 24" stroke-width="1.5" fill="none" stroke="currentColor">
        <path stroke-linecap="round" stroke-linejoin="round" d="M6 18L18 6M6 6l12 12" />
    </symbol>

    <symbol id="ERROR" viewBox="0 0 24 24" fill="currentColor">
        <path d="M12 22C6.47715 22 2 17.5228 2 12C2 6.47715 6.47715 2 12 2C17.5228 2 22 6.47715 22 12C22 17.5228 17.5228 22 12 22ZM12 20C16.4183 20 20 16.4183 20 12C20 7.58172 16.4183 4 12 4C7.58172 4 4 7.58172 4 12C4 16.4183 7.58172 20 12 20ZM12 10.5858L14.8284 7.75736L16.2426 9.17157L13.4142 12L16.2426 14.8284L14.8284 16.2426L12 13.4142L9.17157 16.2426L7.75736 14.8284L10.5858 12L7.75736 9.17157L9.17157 7.75736L12 10.5858Z" />
    </symbol>
</svg>